<svg width="34" height="34" viewBox="0 0 34 34" fill="none" xmlns="http://www.w3.org/2000/svg">
  <path fill-rule="evenodd" clip-rule="evenodd" d="M17 8.74286C16.1986 8.74286 15.5429 8.08714 15.5429 7.28571V1.45714C15.5429 0.655714 16.1986 0 17 0C17.8014 0 18.4571 0.655714 18.4571 1.45714V7.28571C18.4571 8.08714 17.8014 8.74286 17 8.74286Z" fill="#3C50E0"/>
  <path fill-rule="evenodd" clip-rule="evenodd" d="M21.1286 9.84912C20.4345 9.44841 20.1945 8.55275 20.5953 7.85866L23.5095 2.81112C23.9103 2.11703 24.8059 1.87709 25.5 2.27781C26.1941 2.67852 26.434 3.57418 26.0333 4.26826L23.119 9.31581C22.7183 10.0099 21.8227 10.2498 21.1286 9.84912Z" fill="#3C50E0"/>
  <path fill-rule="evenodd" clip-rule="evenodd" d="M24.1509 12.8714C23.7502 12.1773 23.9901 11.2817 24.6842 10.881L29.7317 7.96669C30.4258 7.56597 31.3215 7.80591 31.7222 8.5C32.1229 9.19409 31.883 10.0897 31.1889 10.4905L26.1413 13.4047C25.4473 13.8055 24.5516 13.5655 24.1509 12.8714Z" fill="#3C50E0"/>
  <path fill-rule="evenodd" clip-rule="evenodd" d="M25.2571 17C25.2571 16.1986 25.9129 15.5429 26.7143 15.5429H32.5429C33.3443 15.5429 34 16.1986 34 17C34 17.8014 33.3443 18.4571 32.5429 18.4571H26.7143C25.9129 18.4571 25.2571 17.8014 25.2571 17Z" fill="#3C50E0"/>
  <path fill-rule="evenodd" clip-rule="evenodd" d="M24.1509 21.1286C24.5516 20.4345 25.4473 20.1945 26.1413 20.5953L31.1889 23.5095C31.883 23.9103 32.1229 24.8059 31.7222 25.5C31.3215 26.1941 30.4258 26.434 29.7317 26.0333L24.6842 23.119C23.9901 22.7183 23.7502 21.8227 24.1509 21.1286Z" fill="#3C50E0"/>
  <path fill-rule="evenodd" clip-rule="evenodd" d="M21.1286 24.1509C21.8227 23.7502 22.7183 23.9901 23.119 24.6842L26.0333 29.7317C26.434 30.4258 26.1941 31.3215 25.5 31.7222C24.8059 32.1229 23.9103 31.883 23.5095 31.1889L20.5953 26.1413C20.1945 25.4473 20.4345 24.5516 21.1286 24.1509Z" fill="#3C50E0"/>
  <path fill-rule="evenodd" clip-rule="evenodd" d="M17 25.2571C17.8014 25.2571 18.4571 25.9129 18.4571 26.7143V32.5429C18.4571 33.3443 17.8014 34 17 34C16.1986 34 15.5429 33.3443 15.5429 32.5429V26.7143C15.5429 25.9129 16.1986 25.2571 17 25.2571Z" fill="#3C50E0"/>
  <path fill-rule="evenodd" clip-rule="evenodd" d="M12.8714 24.1509C13.5655 24.5516 13.8055 25.4473 13.4047 26.1413L10.4905 31.1889C10.0897 31.883 9.19409 32.1229 8.5 31.7222C7.80591 31.3215 7.56597 30.4258 7.96669 29.7317L10.881 24.6842C11.2817 23.9901 12.1773 23.7502 12.8714 24.1509Z" fill="#3C50E0"/>
  <path fill-rule="evenodd" clip-rule="evenodd" d="M9.84912 21.1286C10.2498 21.8227 10.0099 22.7183 9.31581 23.119L4.26826 26.0333C3.57418 26.434 2.67852 26.1941 2.27781 25.5C1.87709 24.8059 2.11703 23.9103 2.81112 23.5095L7.85866 20.5953C8.55275 20.1945 9.44841 20.4345 9.84912 21.1286Z" fill="#3C50E0"/>
  <path fill-rule="evenodd" clip-rule="evenodd" d="M8.74286 17C8.74286 17.8014 8.08714 18.4571 7.28571 18.4571H1.45714C0.655714 18.4571 0 17.8014 0 17C0 16.1986 0.655714 15.5429 1.45714 15.5429H7.28571C8.08714 15.5429 8.74286 16.1986 8.74286 17Z" fill="#3C50E0"/>
  <path fill-rule="evenodd" clip-rule="evenodd" d="M9.84912 12.8714C9.44841 13.5655 8.55275 13.8055 7.85866 13.4047L2.81112 10.4905C2.11703 10.0897 1.87709 9.19409 2.27781 8.5C2.67852 7.80591 3.57418 7.56597 4.26826 7.96669L9.31581 10.881C10.0099 11.2817 10.2498 12.1773 9.84912 12.8714Z" fill="#3C50E0"/>
  <path fill-rule="evenodd" clip-rule="evenodd" d="M12.8714 9.84912C12.1773 10.2498 11.2817 10.0099 10.881 9.31581L7.96669 4.26826C7.56597 3.57418 7.80591 2.67852 8.5 2.27781C9.19409 1.87709 10.0897 2.11703 10.4905 2.81112L13.4047 7.85866C13.8055 8.55275 13.5655 9.44841 12.8714 9.84912Z" fill="#3C50E0"/>
</svg>
